<svg width="16" height="16" viewBox="0 0 16 16" fill="none" xmlns="http://www.w3.org/2000/svg">
<path d="M13.3334 6C13.0873 6 12.8565 6.06706 12.6582 6.18391C12.5837 5.51856 12.0179 5 11.3334 5C11.0078 5 10.7087 5.11784 10.4763 5.31413C10.2429 4.92644 9.81805 4.66666 9.33336 4.66666C9.09086 4.66666 8.86298 4.73175 8.6667 4.84569V1.33334C8.66667 0.597969 8.0687 0 7.33336 0C6.59801 0 6.00002 0.597969 6.00002 1.33334V10.2546C6.00002 10.4225 5.88933 10.5088 5.8418 10.5381C5.79426 10.5674 5.66633 10.6276 5.51758 10.5527L3.37695 9.48244C3.18195 9.38478 2.96355 9.33334 2.74545 9.33334C1.9668 9.33334 1.33336 9.96681 1.33336 10.7455V11C1.33336 11.0924 1.37176 11.1807 1.43914 11.2438L5.28648 14.8346C6.0918 15.5859 7.14195 16 8.24317 16H10.3333C12.7226 16 14.6667 14.056 14.6667 11.6667V7.33334C14.6667 6.59797 14.0687 6 13.3334 6ZM14 11.6667C14 13.6885 12.3552 15.3333 10.3334 15.3333H8.2432C7.31155 15.3333 6.42289 14.9831 5.74158 14.347L2.00002 10.8552V10.7455C2.00002 10.3343 2.33433 10 2.74545 10C2.86036 10 2.97592 10.0273 3.0788 10.0788L5.21942 11.1491C5.53161 11.3057 5.89552 11.2884 6.19239 11.1055C6.48927 10.9219 6.66667 10.6038 6.66667 10.2546V1.33334C6.66667 0.965844 6.96583 0.666687 7.33333 0.666687C7.70083 0.666687 7.99998 0.965844 7.99998 1.33334V6.33334C7.99998 6.51759 8.14908 6.66669 8.33333 6.66669C8.51758 6.66669 8.66667 6.51759 8.66667 6.33334V6C8.66667 5.6325 8.96583 5.33334 9.33333 5.33334C9.70083 5.33334 9.99998 5.6325 9.99998 6V6.33334C9.99998 6.334 9.99998 6.33466 9.99998 6.33531V6.33563C10.0013 6.51856 10.15 6.66669 10.3333 6.66669C10.5176 6.66669 10.6667 6.51759 10.6667 6.33334V6.32812C10.6693 5.96322 10.9681 5.66666 11.3333 5.66666C11.7008 5.66666 12 5.96581 12 6.33331V7.33331C12 7.51756 12.1491 7.66666 12.3333 7.66666C12.5176 7.66666 12.6667 7.51756 12.6667 7.33331C12.6667 6.96581 12.9658 6.66666 13.3333 6.66666C13.7008 6.66666 14 6.96581 14 7.33334V11.6667Z" fill="black"/>
</svg>
